<?xml version="1.0" encoding="iso-8859-1"?>
<!-- Generator: Adobe Illustrator 19.0.0, SVG Export Plug-In . SVG Version: 6.00 Build 0)  -->
<svg version="1.1" id="Layer_1" xmlns="http://www.w3.org/2000/svg" xmlns:xlink="http://www.w3.org/1999/xlink" x="0px" y="0px"
	 viewBox="0 0 512 512" style="enable-background:new 0 0 512 512;" xml:space="preserve">
<circle style="fill:#E6E6E6;" cx="252.71" cy="190.607" r="30.927"/>
<path style="fill:#CCCCCC;" d="M248.29,190.613c0-12.336,7.225-22.982,17.672-27.945c-4.018-1.909-8.51-2.98-13.253-2.98
	c-17.08,0-30.926,13.846-30.926,30.926s13.846,30.926,30.926,30.926c4.743,0,9.237-1.071,13.253-2.98
	C255.515,213.595,248.29,202.948,248.29,190.613z"/>
<polygon style="fill:#CEBBA3;" points="199.697,421.229 10.103,421.229 55.192,230.363 60.329,208.649 101.118,35.985 
	130.255,159.318 135.015,179.441 149.766,241.885 "/>
<polygon style="fill:#B29C84;" points="101.118,35.985 58.853,438.544 10.103,421.229 "/>
<path style="fill:#E6E6E6;" d="M459.476,422.408H45.955c0-3.676,0.094-7.328,0.295-10.957
	c5.691-109.1,95.952-195.803,206.466-195.803c33.119,0,64.423,7.788,92.17,21.632l85.313,79.021
	c16.836,28.088,27.181,60.488,28.983,95.151C459.382,415.079,459.476,418.732,459.476,422.408z"/>
<path style="fill:#CCCCCC;" d="M288.027,218.666c-11.477-1.976-23.274-3.017-35.314-3.017c-114.19,0-206.76,92.57-206.76,206.76
	h70.635C116.587,320.262,190.665,235.426,288.027,218.666z"/>
<path style="fill:#B29C84;" d="M135.015,179.441c-31.67,29.867-71.999,47.54-73.778,48.306l-6.044,2.616l5.137-21.714
	c12.795-6.28,43.11-22.515,66.061-45.466l3.864-3.864L135.015,179.441z"/>
<path style="fill:#CCCCCC;" d="M459.476,422.408H45.955c0-3.676,0.094-7.328,0.295-10.957h412.932
	C459.382,415.079,459.476,418.732,459.476,422.408z"/>
<path style="fill:#E6E6E6;" d="M505.419,421.232H0v16.185c0,21.317,17.282,38.599,38.599,38.599h428.22
	c21.317,0,38.599-17.282,38.599-38.599v-16.185H505.419z"/>
<path style="fill:#CCCCCC;" d="M81.292,437.415V421.23H0v16.185c0,21.317,17.282,38.599,38.599,38.599h81.292
	C98.572,476.014,81.292,458.733,81.292,437.415z"/>
<path style="fill:#EBFBFF;" d="M444.846,449.507h-35.345c-14.64,0-26.508,11.868-26.508,26.508l0,0h88.36l0,0
	C471.352,461.375,459.485,449.507,444.846,449.507z"/>
<path style="fill:#CADADD;" d="M433.065,449.507h-23.564c-14.64,0-26.508,11.868-26.508,26.508l0,0h23.564l0,0
	C406.557,461.375,418.425,449.507,433.065,449.507z"/>
<rect x="418.328" y="306.364" style="fill:#EBFBFF;" width="17.673" height="151.975"/>
<path style="fill:#CADADD;" d="M436.007,306.368v24.766c-2.898,0.377-5.856,0.566-8.836,0.566c-2.981,0-5.938-0.189-8.836-0.566
	v-24.766H436.007z"/>
<path style="fill:#EBFBFF;" d="M358.295,149.757c-10.024,17.159-15.948,38.197-15.948,60.951c0,57.709,37.978,104.49,84.825,104.49
	s84.825-46.782,84.825-104.49c0-22.754-5.923-43.793-15.948-60.951L358.295,149.757L358.295,149.757z"/>
<path style="fill:#CADADD;" d="M388.295,210.709c0-22.754,5.923-43.793,15.948-60.951h-45.947
	c-10.024,17.159-15.948,38.197-15.948,60.951c0,57.709,37.978,104.49,84.825,104.49c7.962,0,15.666-1.355,22.974-3.881
	C414.461,298.979,388.295,258.61,388.295,210.709z"/>
<path style="fill:#B73625;" d="M512,210.71c0,47.905-26.168,88.27-61.855,100.606l-0.012,0.012
	c-7.305,2.521-15.01,3.876-22.963,3.876c-46.845,0-84.818-46.786-84.818-104.494c0-4.725,0.259-9.355,0.754-13.914h168.128
	C511.729,201.356,512,205.986,512,210.71z"/>
<path style="fill:#A0281F;" d="M450.145,311.316l-0.012,0.012c-7.305,2.521-15.01,3.876-22.963,3.876
	c-46.845,0-84.818-46.786-84.818-104.494c0-4.725,0.259-9.355,0.754-13.914h45.938c-0.495,4.548-0.754,9.202-0.754,13.914
	C388.29,258.616,414.458,298.98,450.145,311.316z"/>
<g>
</g>
<g>
</g>
<g>
</g>
<g>
</g>
<g>
</g>
<g>
</g>
<g>
</g>
<g>
</g>
<g>
</g>
<g>
</g>
<g>
</g>
<g>
</g>
<g>
</g>
<g>
</g>
<g>
</g>
</svg>
