<?xml version="1.0" encoding="iso-8859-1"?>
<!-- Generator: Adobe Illustrator 19.0.0, SVG Export Plug-In . SVG Version: 6.00 Build 0)  -->
<svg version="1.1" id="Layer_1" xmlns="http://www.w3.org/2000/svg" xmlns:xlink="http://www.w3.org/1999/xlink" x="0px" y="0px"
	 viewBox="0 0 297 297" style="enable-background:new 0 0 297 297;" xml:space="preserve">
<g>
	<path style="fill:#2D0327;" d="M105.867,108.587c0-10.845-8.43-19.738-19.079-20.521c2.06-3.206,3.271-7.008,3.271-11.095
		c0-11.358-9.24-20.598-20.598-20.598c-6.346,0-12.027,2.888-15.808,7.414c-0.103-0.124-0.213-0.241-0.319-0.362
		c-3.778-4.315-9.316-7.052-15.489-7.052c-11.358,0-20.598,9.24-20.598,20.598c0,4.086,1.211,7.888,3.271,11.095
		c-10.65,0.782-19.08,9.675-19.08,20.521s8.43,19.738,19.079,20.521c-2.06,3.206-3.271,7.008-3.271,11.095
		c0,10.845,8.43,19.738,19.079,20.521c-2.06,3.206-3.271,7.008-3.271,11.095c0,11.251,9.069,20.409,20.279,20.582
		c0.107,0.002,0.211,0.016,0.319,0.016c11.358,0,20.598-9.24,20.598-20.598c0-4.086-1.211-7.888-3.271-11.095
		c10.649-0.783,19.079-9.676,19.079-20.521c0-4.086-1.211-7.888-3.271-11.095C97.437,128.325,105.867,119.432,105.867,108.587z
		 M69.461,65.953c6.075,0,11.018,4.943,11.018,11.018s-4.943,11.018-11.018,11.018s-11.018-4.943-11.018-11.018
		S63.386,65.953,69.461,65.953z M53.334,97.585c0.107-0.003,0.211-0.016,0.319-0.016c6.075,0,11.018,4.943,11.018,11.018
		s-4.943,11.018-11.018,11.018c-0.108,0-0.212-0.013-0.319-0.016c-5.927-0.171-10.699-5.034-10.699-11.002
		C42.635,102.619,47.407,97.756,53.334,97.585z M37.844,65.953c6.075,0,11.018,4.943,11.018,11.018s-4.943,11.018-11.018,11.018
		s-11.018-4.943-11.018-11.018S31.77,65.953,37.844,65.953z M22.036,119.604c-6.075,0-11.018-4.943-11.018-11.018
		s4.943-11.018,11.018-11.018s11.018,4.943,11.018,11.018S28.111,119.604,22.036,119.604z M37.844,151.221
		c-6.075,0-11.018-4.943-11.018-11.018c0-6.075,4.943-11.018,11.018-11.018s11.018,4.943,11.018,11.018
		S43.919,151.221,37.844,151.221z M53.653,182.837c-0.108,0-0.212-0.013-0.319-0.016c-5.927-0.171-10.699-5.034-10.699-11.002
		c0-5.967,4.772-10.831,10.699-11.002c0.107-0.003,0.211-0.016,0.319-0.016c6.075,0,11.018,4.943,11.018,11.018
		C64.67,177.894,59.727,182.837,53.653,182.837z M69.461,151.221c-6.075,0-11.018-4.943-11.018-11.018
		c0-6.075,4.943-11.018,11.018-11.018s11.018,4.943,11.018,11.018C80.478,146.278,75.536,151.221,69.461,151.221z M85.269,119.604
		c-6.075,0-11.018-4.943-11.018-11.018s4.943-11.018,11.018-11.018s11.018,4.943,11.018,11.018S91.344,119.604,85.269,119.604z"/>
	<path style="fill:#639929;" d="M275.977,40.428c-5.013-9.241-16.959-14.727-35.506-16.306c-1.342-0.108-2.662,0.293-3.708,1.116
		c-0.124,0.098-0.247,0.199-0.363,0.309c-1.091,1.034-1.689,2.484-1.643,3.987c0.077,2.513,1.14,24.804,14.669,33.615
		c3.499,2.28,7.406,3.42,11.689,3.42c3.741,0,7.769-0.871,12.061-2.613c0.439-0.178,0.837-0.429,1.208-0.713
		c0.592-0.453,1.097-1.014,1.454-1.68C276.072,61.122,281.539,50.683,275.977,40.428z"/>
	<path style="fill:#99C248;" d="M275.837,61.562c0.236-0.44,5.703-10.879,0.14-21.134c-5.013-9.241-16.959-14.727-35.506-16.306
		c-1.342-0.108-2.662,0.293-3.707,1.116l37.62,38.004C274.974,62.79,275.479,62.228,275.837,61.562z"/>
	<path style="fill:#639929;" d="M236.763,25.239c-0.124,0.098-0.247,0.199-0.363,0.309c-1.091,1.034-1.689,2.484-1.643,3.987
		c0.077,2.513,1.14,24.804,14.668,33.615c3.499,2.28,7.406,3.42,11.689,3.42c3.742,0,7.769-0.871,12.061-2.613
		c0.439-0.178,0.837-0.429,1.208-0.713L236.763,25.239z"/>
	<path style="fill:#516662;" d="M195.924,228.824c-3.439,0-6.227,2.788-6.227,6.228h-41.515h-40.879
		c0-3.439-2.788-6.228-6.227-6.228s-6.227,2.788-6.227,6.228v31.616c0,3.439,2.788,6.227,6.227,6.227h47.106h47.742
		c3.439,0,6.227-2.788,6.227-6.227v-31.616C202.152,231.612,199.364,228.824,195.924,228.824z"/>
	<path style="fill:#6A847F;" d="M107.303,235.051c0-3.439-2.788-6.227-6.227-6.227s-6.227,2.788-6.227,6.227v31.616
		c0,3.439,2.788,6.227,6.227,6.227h47.106V235.05h-40.879V235.051z"/>
	<path style="fill:#516662;" d="M195.924,228.824c-3.439,0-6.227,2.788-6.227,6.227h-41.515v37.844h47.742
		c3.439,0,6.227-2.788,6.227-6.227v-31.616C202.152,231.612,199.363,228.824,195.924,228.824z"/>
	<path style="fill:#E8871C;" d="M282.412,94.359c-1.145-10.82-9.015-17.881-13.509-21.082c-0.483-0.344-0.94-0.658-1.332-0.912
		c-4.039-2.622-14.673-8.312-26.135-4.591c-8.804,2.861-15.585,10.339-20.154,22.226c-5.858,15.241-16.918,24.803-33.813,29.234
		c-16.002,4.198-28.895,17.81-31.355,33.102c-1.583,9.841-0.086,28.911,27.085,47.116c0.442,0.296,0.871,0.592,1.326,0.888
		c14.188,9.205,25.892,12.198,35.114,12.198c9.284,0,16.053-3.033,20.307-5.814c12.962-8.479,20.14-25.798,17.454-42.117
		c-2.836-17.233,1.391-31.229,12.924-42.786C279.32,112.804,283.387,103.564,282.412,94.359z"/>
	<path style="fill:#FA961E;" d="M267.571,72.365c-4.039-2.622-14.673-8.312-26.135-4.591c-8.804,2.861-15.585,10.339-20.154,22.226
		c-5.858,15.241-16.918,24.803-33.813,29.234c-16.002,4.198-28.895,17.81-31.355,33.102c-1.583,9.841-0.086,28.911,27.085,47.116
		l85.704-126.175C268.42,72.932,267.964,72.619,267.571,72.365z"/>
	<path style="fill:#E8871C;" d="M282.412,94.359c-1.145-10.82-9.015-17.881-13.509-21.082l-85.704,126.175
		c0.442,0.296,0.871,0.592,1.326,0.888c14.188,9.205,25.892,12.198,35.114,12.198c9.284,0,16.053-3.033,20.306-5.814
		c12.962-8.479,20.14-25.798,17.454-42.117c-2.836-17.233,1.391-31.229,12.924-42.786
		C279.32,112.804,283.387,103.564,282.412,94.359z"/>
	<path style="fill:#8E0E21;" d="M148.661,61.406c-0.054,0-0.106-0.004-0.16-0.004c-30.376,0-55.089,24.712-55.089,55.089
		s24.712,55.089,55.089,55.089c0.054,0,0.106-0.004,0.16-0.004c30.303-0.087,54.929-24.762,54.929-55.085
		S178.964,61.493,148.661,61.406z"/>
	<path style="fill:#A91523;" d="M148.501,61.402c-30.376,0-55.089,24.712-55.089,55.089s24.712,55.089,55.089,55.089
		c0.054,0,0.106-0.004,0.16-0.004V61.406C148.607,61.406,148.555,61.402,148.501,61.402z"/>
	<path style="fill:#8E0E21;" d="M203.59,116.491c0-30.323-24.626-54.997-54.929-55.085v110.169
		C178.964,171.488,203.59,146.813,203.59,116.491z"/>
	<g>
		<path style="fill:#5C2D1D;" d="M148.51,92.54c-0.232,0-0.466-0.011-0.701-0.032c-4.216-0.383-7.324-4.109-6.942-8.325
			c1.693-18.69-10.802-23.723-10.928-23.772c-3.95-1.52-5.92-5.956-4.399-9.906c1.521-3.949,5.954-5.922,9.906-4.399
			c0.957,0.369,23.414,9.371,20.688,39.46C155.773,89.546,152.431,92.54,148.51,92.54z"/>
	</g>
	<path style="fill:#829995;" d="M290.773,141.879H148.182H6.227c-3.439,0-6.227,2.788-6.227,6.227
		c0,25.476,15.858,49.197,44.651,66.793c27.761,16.964,64.517,26.326,103.531,26.376c0.106,0,0.212,0.002,0.318,0.002
		c39.133,0,76.014-9.368,103.849-26.379C281.142,197.304,297,173.583,297,148.107C297,144.667,294.212,141.879,290.773,141.879z"/>
	<path style="fill:#A1BEB9;" d="M6.227,141.879c-3.439,0-6.227,2.788-6.227,6.227c0,25.476,15.858,49.197,44.651,66.793
		c27.761,16.964,64.517,26.325,103.531,26.376v-99.397H6.227V141.879z"/>
	<path style="fill:#829995;" d="M290.773,141.879H148.182v99.397c0.106,0,0.212,0.002,0.318,0.002
		c39.133,0,76.014-9.368,103.849-26.379C281.142,197.304,297,173.583,297,148.107C297,144.667,294.212,141.879,290.773,141.879z"/>
	<g>
		<path style="fill:#7F3705;" d="M263.392,86.459c-1.392,0-2.801-0.379-4.067-1.173c-3.585-2.251-4.668-6.982-2.418-10.567
			l15.584-24.83c2.25-3.585,6.982-4.666,10.567-2.418c3.585,2.251,4.668,6.982,2.418,10.567l-15.584,24.83
			C268.436,85.188,265.942,86.459,263.392,86.459z"/>
	</g>
	<path style="fill:#700A5A;" d="M37.844,61.162c-8.731,0-15.808,7.077-15.808,15.808s7.078,15.808,15.808,15.808
		c7.644,0,14.02-5.426,15.489-12.636v-6.344C51.865,66.588,45.488,61.162,37.844,61.162z"/>
	<path style="fill:#700A5A;" d="M53.334,73.798v6.344c0.209-1.025,0.319-2.086,0.319-3.172S53.542,74.823,53.334,73.798z"/>
	<path style="fill:#5E0A4E;" d="M53.653,92.779c-0.108,0-0.212,0.014-0.319,0.016c-8.582,0.172-15.489,7.169-15.489,15.792
		s6.907,15.62,15.489,15.792c0.107,0.002,0.211,0.016,0.319,0.016c8.731,0,15.808-7.077,15.808-15.808S62.383,92.779,53.653,92.779z
		"/>
	<path style="fill:#700A5A;" d="M37.844,108.587c0,8.623,6.907,15.62,15.489,15.792V92.795
		C44.752,92.966,37.844,99.964,37.844,108.587z"/>
	<path style="fill:#5E0A4E;" d="M53.653,92.779c-0.108,0-0.212,0.014-0.319,0.016v31.584c0.107,0.002,0.211,0.016,0.319,0.016
		c8.731,0,15.808-7.077,15.808-15.808S62.383,92.779,53.653,92.779z"/>
	<circle style="fill:#5E0A4E;" cx="69.461" cy="76.97" r="15.808"/>
	<circle style="fill:#5E0A4E;" cx="85.269" cy="108.587" r="15.808"/>
	<path style="fill:#700A5A;" d="M37.844,124.395c-8.731,0-15.808,7.077-15.808,15.808s7.078,15.808,15.808,15.808
		c7.644,0,14.02-5.426,15.489-12.636v-6.344C51.865,129.82,45.488,124.395,37.844,124.395z"/>
	<path style="fill:#700A5A;" d="M53.334,137.031v6.344c0.209-1.025,0.319-2.086,0.319-3.172
		C53.653,139.116,53.542,138.056,53.334,137.031z"/>
	<circle style="fill:#5E0A4E;" cx="69.461" cy="140.203" r="15.808"/>
	<path style="fill:#5E0A4E;" d="M53.653,156.011c-0.108,0-0.212,0.014-0.319,0.016c-8.582,0.172-15.489,7.169-15.489,15.792
		s6.907,15.62,15.489,15.792c0.107,0.002,0.211,0.016,0.319,0.016c8.731,0,15.808-7.077,15.808-15.808
		S62.383,156.011,53.653,156.011z"/>
	<path style="fill:#700A5A;" d="M37.844,171.819c0,8.623,6.907,15.62,15.489,15.792v-31.584
		C44.752,156.199,37.844,163.196,37.844,171.819z"/>
	<path style="fill:#5E0A4E;" d="M53.653,156.011c-0.108,0-0.212,0.014-0.319,0.016v31.584c0.107,0.002,0.211,0.016,0.319,0.016
		c8.731,0,15.808-7.077,15.808-15.808C69.461,163.088,62.383,156.011,53.653,156.011z"/>
	<g>
		<circle style="fill:#700A5A;" cx="22.036" cy="108.587" r="15.808"/>
		<path style="fill:#49053C;" d="M42.635,171.819c0-5.967,4.772-10.831,10.699-11.002v-41.229
			c-5.927-0.171-10.699-5.034-10.699-11.002c0-5.967,4.772-10.831,10.699-11.002V63.425c-3.778-4.315-9.316-7.052-15.489-7.052
			c-11.358,0-20.598,9.24-20.598,20.598c0,4.086,1.211,7.888,3.271,11.095c-10.65,0.782-19.08,9.675-19.08,20.521
			s8.43,19.738,19.079,20.521c-2.06,3.206-3.271,7.008-3.271,11.095c0,10.845,8.43,19.738,19.079,20.521
			c-2.06,3.206-3.271,7.008-3.271,11.095c0,11.251,9.069,20.409,20.279,20.582v-9.581C47.407,182.65,42.635,177.786,42.635,171.819z
			 M37.844,65.953c6.075,0,11.018,4.943,11.018,11.018s-4.943,11.018-11.018,11.018s-11.018-4.943-11.018-11.018
			S31.77,65.953,37.844,65.953z M22.036,119.604c-6.075,0-11.018-4.943-11.018-11.018s4.943-11.018,11.018-11.018
			s11.018,4.943,11.018,11.018S28.111,119.604,22.036,119.604z M37.844,151.221c-6.075,0-11.018-4.943-11.018-11.018
			c0-6.075,4.943-11.018,11.018-11.018s11.018,4.943,11.018,11.018S43.919,151.221,37.844,151.221z"/>
		<path style="fill:#2D0327;" d="M105.867,108.587c0-10.845-8.43-19.738-19.079-20.521c2.06-3.206,3.271-7.008,3.271-11.095
			c0-11.358-9.24-20.598-20.598-20.598c-6.346,0-12.027,2.888-15.808,7.414c-0.103-0.124-0.213-0.241-0.319-0.362v34.161
			c0.107-0.003,0.211-0.016,0.319-0.016c6.075,0,11.018,4.943,11.018,11.018s-4.943,11.018-11.018,11.018
			c-0.108,0-0.212-0.013-0.319-0.016v41.229c0.107-0.003,0.211-0.016,0.319-0.016c6.075,0,11.018,4.943,11.018,11.018
			c0,6.075-4.943,11.018-11.018,11.018c-0.108,0-0.212-0.013-0.319-0.016v9.581c0.107,0.002,0.211,0.016,0.319,0.016
			c11.358,0,20.598-9.24,20.598-20.598c0-4.086-1.211-7.888-3.271-11.095c10.649-0.783,19.079-9.676,19.079-20.521
			c0-4.086-1.211-7.888-3.271-11.095C97.437,128.325,105.867,119.432,105.867,108.587z M58.443,76.971
			c0-6.075,4.943-11.018,11.018-11.018s11.018,4.943,11.018,11.018s-4.943,11.018-11.018,11.018
			C63.386,87.988,58.443,83.045,58.443,76.971z M69.461,151.221c-6.075,0-11.018-4.943-11.018-11.018
			c0-6.075,4.943-11.018,11.018-11.018s11.018,4.943,11.018,11.018C80.478,146.278,75.536,151.221,69.461,151.221z M85.269,119.604
			c-6.075,0-11.018-4.943-11.018-11.018s4.943-11.018,11.018-11.018s11.018,4.943,11.018,11.018S91.344,119.604,85.269,119.604z"/>
	</g>
</g>
<g>
</g>
<g>
</g>
<g>
</g>
<g>
</g>
<g>
</g>
<g>
</g>
<g>
</g>
<g>
</g>
<g>
</g>
<g>
</g>
<g>
</g>
<g>
</g>
<g>
</g>
<g>
</g>
<g>
</g>
</svg>
