<?xml version="1.0" encoding="iso-8859-1"?>
<!-- Generator: Adobe Illustrator 19.0.0, SVG Export Plug-In . SVG Version: 6.00 Build 0)  -->
<svg version="1.1" id="Layer_1" xmlns="http://www.w3.org/2000/svg" xmlns:xlink="http://www.w3.org/1999/xlink" x="0px" y="0px"
	 viewBox="0 0 512 512" style="enable-background:new 0 0 512 512;" xml:space="preserve">
<path style="fill:#10744A;" d="M450.11,327.742c-0.08,0-0.158,0.006-0.237,0.006c0.142-1.861,0.237-3.735,0.237-5.632
	c0-40.396-32.748-73.143-73.143-73.143c-4.426,0-8.753,0.415-12.963,1.168c-7.192-32.842-36.432-57.432-71.431-57.432
	l123.779,236.308l33.758-33.758c18.645,0,33.758-15.115,33.758-33.758C483.868,342.855,468.755,327.742,450.11,327.742z"/>
<path style="fill:#169B62;" d="M450.11,361.5c0-18.645-15.114-33.758-33.758-33.758c-0.08,0-0.158,0.006-0.237,0.006
	c0.142-1.861,0.237-3.735,0.237-5.632c0-40.396-32.748-73.143-73.143-73.143c-4.426,0-8.754,0.415-12.963,1.168
	c-3.792-32.842-19.214-57.432-37.673-57.432c-35.002,0-64.243,24.59-71.435,57.432c-4.21-0.753-8.536-1.168-12.962-1.168
	c-40.395,0-73.143,32.747-73.143,73.143c0,40.395,32.748,73.143,73.143,73.143l208.176,33.758v-33.758
	C434.996,395.258,450.11,380.144,450.11,361.5z"/>
<path style="fill:#FFA187;" d="M382.593,327.742c-15.513,0-25.408-2.947-33.758-6.704l-22.505,74.221l56.264-33.758V327.742z"/>
<path style="fill:#FFCFB2;" d="M296.789,305.236c-42.902,0-42.902,22.505-85.804,22.505c-42.9,0-42.9-22.505-85.801-22.505
	c-42.899,0-42.899,22.505-85.799,22.505V361.5l59.071,33.758h250.379v-74.221C334.091,314.405,324.178,305.236,296.789,305.236z"/>
<path style="fill:#FF4431;" d="M382.593,361.5c-15.513,0-25.408-2.947-33.758-6.704l-22.505,57.342h56.264V361.5z"/>
<path style="fill:#FF725C;" d="M296.789,338.994c-42.902,0-42.902,22.505-85.804,22.505c-42.9,0-42.9-22.505-85.801-22.505
	c-42.899,0-42.899,22.505-85.799,22.505v50.637h309.451v-57.342C334.091,348.163,324.178,338.994,296.789,338.994z"/>
<path style="fill:#FFCD71;" d="M461.363,429.016l-39.385,56.264h33.758c12.378,0,25.415-9.7,28.972-21.556l10.412-34.708H461.363z"
	/>
<path style="fill:#FFE1AA;" d="M450.951,463.723l10.412-34.707H16.879l10.412,34.708c3.557,11.855,16.594,21.556,28.972,21.556
	h365.714C434.356,485.28,447.393,475.579,450.951,463.723z"/>
<path style="fill:#FFF5E3;" d="M495.121,395.258H16.879C7.557,395.258,0,402.816,0,412.137s7.557,16.879,16.879,16.879h478.242
	c9.322,0,16.879-7.557,16.879-16.879S504.443,395.258,495.121,395.258z"/>
<g>
	<path style="fill:#FFCFB2;" d="M233.495,128.004c0-13.322,3.433-19.617,7.409-26.906c4.439-8.138,9.47-17.363,9.47-34.988
		c0-17.624-5.033-26.85-9.473-34.989c-2.233-4.09-7.359-5.603-11.453-3.367c-4.091,2.233-5.596,7.362-3.363,11.453
		c3.976,7.29,7.41,13.583,7.41,26.903c0,13.322-3.433,19.617-7.409,26.906c-4.439,8.138-9.47,17.363-9.47,34.988
		s5.031,26.849,9.47,34.988c1.531,2.808,4.428,4.399,7.417,4.399c1.365,0,2.75-0.332,4.034-1.032
		c4.092-2.231,5.599-7.358,3.367-11.451C236.928,147.62,233.495,141.326,233.495,128.004z"/>
	<path style="fill:#FFCFB2;" d="M278.505,128.004c0-13.322,3.433-19.617,7.409-26.906c4.439-8.138,9.47-17.363,9.47-34.988
		c0-17.624-5.033-26.85-9.473-34.989c-2.233-4.09-7.359-5.603-11.453-3.367c-4.091,2.233-5.596,7.362-3.363,11.453
		c3.976,7.29,7.41,13.583,7.41,26.903c0,13.322-3.433,19.617-7.409,26.906c-4.439,8.138-9.47,17.363-9.47,34.988
		s5.031,26.849,9.47,34.988c1.531,2.808,4.428,4.399,7.417,4.399c1.365,0,2.75-0.332,4.034-1.032
		c4.092-2.231,5.599-7.358,3.367-11.451C281.939,147.62,278.505,141.326,278.505,128.004z"/>
</g>
<g>
</g>
<g>
</g>
<g>
</g>
<g>
</g>
<g>
</g>
<g>
</g>
<g>
</g>
<g>
</g>
<g>
</g>
<g>
</g>
<g>
</g>
<g>
</g>
<g>
</g>
<g>
</g>
<g>
</g>
</svg>
