<?xml version="1.0" encoding="iso-8859-1"?>
<!-- Generator: Adobe Illustrator 19.0.0, SVG Export Plug-In . SVG Version: 6.00 Build 0)  -->
<svg version="1.1" id="Layer_1" xmlns="http://www.w3.org/2000/svg" xmlns:xlink="http://www.w3.org/1999/xlink" x="0px" y="0px"
	 viewBox="0 0 475 475" style="enable-background:new 0 0 475 475;" xml:space="preserve">
<g transform="translate(0 -540.36)">
	<g>
		<g>
			<path d="M405.7,610.06c-44.7-44.9-104.3-69.7-167.8-69.7C106.7,540.36,0,647.06,0,778.26c0,63.5,24.8,123.1,69.7,167.8
				c44.9,44.7,104.6,69.3,168.2,69.3c63.5,0,123.1-24.6,167.8-69.3s69.3-104.3,69.3-167.8C475,714.66,450.4,654.96,405.7,610.06z
				 M237.9,1000.36c-122.9,0-222.9-99.6-222.9-222.1c0-122.9,100-222.9,222.9-222.9c122.5,0,222.1,100,222.1,222.9
				C460,900.76,360.4,1000.36,237.9,1000.36z"/>
			<path d="M367.8,696.86l-211.1,145.6l-47.7-68.4c-2.3-3.4-7-4.3-10.4-1.9c-3.4,2.3-4.3,7-1.9,10.4l52,74.5
				c1.5,2.1,3.8,3.2,6.2,3.2v0c1.5,0,2.9-0.5,4.2-1.4l217.2-149.7c3.4-2.3,4.3-7,1.9-10.4C375.9,695.36,371.2,694.46,367.8,696.86z"
				/>
		</g>
	</g>
</g>
<g>
</g>
<g>
</g>
<g>
</g>
<g>
</g>
<g>
</g>
<g>
</g>
<g>
</g>
<g>
</g>
<g>
</g>
<g>
</g>
<g>
</g>
<g>
</g>
<g>
</g>
<g>
</g>
<g>
</g>
</svg>
